<svg width="22" height="22" viewBox="0 0 22 22" fill="none" xmlns="http://www.w3.org/2000/svg">
<path fill-rule="evenodd" clip-rule="evenodd" d="M17.3795 10.3547H12.1017V5.0769C12.1017 4.59046 11.7077 4.19727 11.2221 4.19727C10.7365 4.19727 10.3425 4.59046 10.3425 5.0769V10.3547H5.06469C4.57913 10.3547 4.18506 10.7479 4.18506 11.2343C4.18506 11.7207 4.57913 12.1139 5.06469 12.1139H10.3425V17.3917C10.3425 17.8781 10.7365 18.2713 11.2221 18.2713C11.7077 18.2713 12.1017 17.8781 12.1017 17.3917V12.1139H17.3795C17.8651 12.1139 18.2591 11.7207 18.2591 11.2343C18.2591 10.7479 17.8651 10.3547 17.3795 10.3547Z" fill="white"/>
</svg>
