<svg width="93" height="94" viewBox="0 0 93 94" fill="none" xmlns="http://www.w3.org/2000/svg">
<path d="M76.4899 14.1769C77.3477 13.2381 78.8113 13.1763 79.697 14.0889C87.4291 22.0563 92.1226 32.5685 92.8889 43.7528C93.7083 55.7112 89.9761 67.5342 82.4558 76.8031C74.9356 86.072 64.1957 92.0864 52.433 93.6159C40.6704 95.1453 28.7741 92.0743 19.1777 85.031C9.58136 77.9877 3.01017 67.5044 0.808394 55.7257C-1.39338 43.9471 0.940684 31.7632 7.33311 21.6665C13.7255 11.5698 23.6932 4.32338 35.1971 1.40964C45.967 -1.31821 57.3212 -0.0556028 67.217 4.92233C68.3399 5.4872 68.7283 6.87779 68.1191 7.97733C67.502 9.09114 66.0974 9.48182 64.9563 8.91681C56.0834 4.52341 45.9335 3.42564 36.3017 5.86523C25.9221 8.49421 16.9286 15.0324 11.1609 24.1423C5.39324 33.2523 3.28729 44.2454 5.27388 54.873C7.26047 65.5005 13.1895 74.9592 21.848 81.3142C30.5065 87.6691 41.2402 90.44 51.8532 89.06C62.4662 87.6801 72.1566 82.2535 78.9418 73.8904C85.7271 65.5274 89.0946 54.8599 88.3553 44.0701C87.6679 34.0384 83.4789 24.6059 76.5757 17.4327C75.7071 16.5301 75.645 15.1016 76.4899 14.1769Z" fill="url(#paint0_linear_1_10608)"/>
<defs>
<linearGradient id="paint0_linear_1_10608" x1="93" y1="89.3" x2="2.74474" y2="90.4507" gradientUnits="userSpaceOnUse">
<stop stop-color="#B177FF"/>
<stop offset="1" stop-color="#696CFF"/>
</linearGradient>
</defs>
</svg>
