<svg width="403" height="374" viewBox="0 0 403 374" fill="none" xmlns="http://www.w3.org/2000/svg">
<path d="M187.36 200.072C187.772 200.228 188.097 200.555 188.254 200.967V200.967C188.332 201.176 188.448 201.457 188.548 201.752L188.908 202.789C189.049 203.185 189.164 203.586 189.314 204.05C189.457 204.508 189.627 205.02 189.76 205.524L190.223 207.182C190.376 207.76 190.505 208.341 190.659 208.973C191.322 211.703 191.793 214.475 192.068 217.271C192.227 218.759 192.294 220.242 192.327 221.767C192.329 223.261 192.293 224.794 192.153 226.291C192.016 227.779 191.79 229.259 191.476 230.721C191.162 232.155 190.746 233.566 190.233 234.942C189.21 237.671 187.775 240.192 185.912 242.421C184.99 243.545 183.912 244.548 182.845 245.587C181.762 246.61 180.654 247.633 179.498 248.626C177.159 250.655 174.716 252.56 172.178 254.334C169.615 256.136 166.919 257.806 164.154 259.337C162.769 260.097 161.365 260.823 159.944 261.513C158.528 262.194 157.095 262.839 155.647 263.449C152.759 264.654 149.85 265.7 146.965 266.566C144.179 267.407 141.354 268.11 138.5 268.674C133.041 269.762 128.03 270.208 124.306 270.304L122.975 270.327L121.779 270.326L119.843 270.274L118.602 270.201V270.201C118.348 270.18 118.147 269.979 118.125 269.725V269.725L118.053 268.484L118.001 266.548L118 265.352L118.023 264.021C118.118 260.296 118.564 255.286 119.653 249.827C120.216 246.972 120.92 244.148 121.761 241.362C122.627 238.477 123.673 235.567 124.877 232.679C125.488 231.232 126.133 229.799 126.813 228.382C127.503 226.967 128.227 225.559 128.989 224.173C130.521 221.407 132.19 218.712 133.993 216.149C135.766 213.611 137.672 211.168 139.701 208.829C140.693 207.673 141.716 206.564 142.74 205.482C143.778 204.415 144.781 203.337 145.906 202.415C148.135 200.552 150.656 199.117 153.384 198.094C154.76 197.581 156.171 197.165 157.606 196.851C159.068 196.537 160.547 196.311 162.036 196.174C163.533 196.034 165.066 195.998 166.56 196C168.085 196.033 169.567 196.1 171.055 196.258C173.851 196.534 176.624 197.004 179.354 197.667C179.985 197.822 180.566 197.951 181.144 198.103L182.802 198.567C183.306 198.7 183.819 198.87 184.276 199.013C184.741 199.163 185.141 199.278 185.538 199.419L186.575 199.779C186.87 199.879 187.15 199.995 187.36 200.072V200.072Z" fill="#D8D9FA"/>
<path d="M134.774 158.652L107.87 185.556C106.011 187.416 107.328 190.595 109.958 190.595H132.569C133.352 190.595 134.103 190.906 134.656 191.46L137.497 194.3C143.308 200.111 153.11 198.493 156.745 191.122L164.648 175.095C168.581 167.121 162.778 157.788 153.886 157.788H136.861C136.474 157.788 136.09 157.864 135.732 158.012C135.373 158.161 135.048 158.378 134.774 158.652ZM201.475 229.47C194.104 233.105 192.486 242.906 198.298 248.718L201.138 251.558C201.691 252.112 202.002 252.863 202.003 253.646V276.257C202.003 278.887 205.182 280.204 207.042 278.344L233.945 251.441C234.499 250.887 234.81 250.136 234.81 249.353V232.329C234.81 223.437 225.477 217.634 217.502 221.566L201.475 229.47Z" fill="#666DFC"/>
<path d="M293.86 97.8521L293.888 98.0884C293.906 98.2439 293.94 98.4835 293.964 98.7792C294.013 99.3702 294.123 100.286 294.175 101.389C294.343 103.657 294.456 106.85 294.377 110.692C294.3 114.536 294.029 119.026 293.442 123.901C293.311 125.135 293.123 126.357 292.942 127.626C292.774 128.909 292.535 130.162 292.316 131.475C291.868 134.089 291.307 136.75 290.661 139.464C289.314 145.096 287.603 150.636 285.539 156.047C283.41 161.62 280.855 167.186 277.861 172.594C274.862 177.997 271.45 183.267 267.638 188.277C263.83 193.291 259.626 198.049 255.115 202.5C250.605 206.952 245.794 211.103 240.74 214.87C239.475 215.812 238.204 216.737 236.904 217.623C235.618 218.523 234.304 219.384 232.995 220.236C230.364 221.929 227.677 223.513 224.962 224.999C219.618 227.923 214.081 230.479 208.389 232.652C202.981 234.71 197.449 236.427 191.826 237.793C189.118 238.446 186.472 239.02 183.861 239.473L181.94 239.819C181.303 239.928 180.657 240.018 180.03 240.116L178.17 240.4L176.324 240.635C171.476 241.248 167.016 241.549 163.2 241.654C159.388 241.763 156.213 241.669 153.971 241.526C152.879 241.485 151.969 241.381 151.385 241.34C151.093 241.318 150.855 241.286 150.701 241.27L150.467 241.244C148.693 241.046 147.347 239.638 147.158 237.935L147.132 237.701C147.116 237.548 147.084 237.31 147.063 237.017C147.021 236.433 146.917 235.524 146.876 234.432C146.734 232.19 146.64 229.015 146.748 225.203C146.853 221.387 147.154 216.926 147.767 212.078L148.002 210.233L148.286 208.372C148.384 207.745 148.474 207.1 148.583 206.463L148.929 204.541C149.382 201.931 149.957 199.285 150.609 196.577C151.974 190.953 153.691 185.421 155.751 180.013C157.923 174.322 160.479 168.785 163.403 163.44C164.89 160.726 166.474 158.039 168.166 155.408C169.018 154.098 169.879 152.784 170.779 151.499C171.665 150.198 172.591 148.927 173.532 147.663C177.299 142.608 181.45 137.797 185.902 133.287C190.353 128.777 195.111 124.573 200.126 120.765C205.135 116.953 210.405 113.541 215.808 110.542C221.216 107.547 226.783 104.993 232.355 102.864C237.767 100.8 243.306 99.0888 248.939 97.7419C251.652 97.0952 254.313 96.535 256.928 96.086C258.241 95.8675 259.493 95.6282 260.776 95.4601C262.046 95.2791 263.267 95.0914 264.501 94.9604C269.376 94.3735 273.866 94.1026 277.71 94.0258C281.552 93.9468 284.745 94.0592 287.014 94.2273C288.116 94.2796 289.032 94.3901 289.623 94.4384C289.919 94.4629 290.158 94.4966 290.314 94.5144L290.55 94.543C292.319 94.7563 293.655 96.1584 293.86 97.8521Z" fill="#BABCFD"/>
<path d="M195.87 191.734C196.24 191.87 196.533 192.164 196.67 192.534V192.534C196.79 192.898 196.953 193.421 197.065 194.005C197.33 195.212 197.418 196.682 196.938 197.961C196.702 198.603 196.264 199.139 195.852 199.787L194.481 201.848L191.192 206.787C189.886 208.722 188.569 210.65 187.24 212.57C185.76 214.706 184.261 216.83 182.746 218.941L180.33 222.265L177.821 225.635C176.118 227.89 174.376 230.167 172.604 232.415C170.85 234.655 169.073 236.878 167.275 239.082C165.501 241.266 163.762 243.42 162.05 245.477L159.539 248.516C158.707 249.498 157.95 250.515 157.072 251.364C156.199 252.218 155.192 252.891 154.034 253.359C152.887 253.836 151.63 254.15 150.416 254.443C148.126 254.986 145.811 255.417 143.479 255.735C142.402 255.882 141.372 255.998 140.399 256.085C139.431 256.177 138.494 256.214 137.674 256.273C136.847 256.325 136.057 256.321 135.397 256.344C134.728 256.358 134.125 256.336 133.653 256.335C133.171 256.324 132.786 256.3 132.534 256.292V256.292C132.307 256.276 132.127 256.096 132.112 255.869V255.869C132.103 255.618 132.079 255.232 132.068 254.75C132.068 254.279 132.046 253.676 132.059 253.006C132.082 252.346 132.078 251.557 132.13 250.73C132.189 249.909 132.226 248.973 132.318 248.005C132.405 247.032 132.521 246.001 132.668 244.924C132.986 242.592 133.417 240.278 133.96 237.988C134.253 236.773 134.567 235.517 135.045 234.369C135.512 233.211 136.185 232.204 137.039 231.331C137.888 230.453 138.906 229.697 139.888 228.865L142.927 226.354C144.984 224.642 147.138 222.902 149.321 221.129C151.501 219.351 153.734 217.564 155.989 215.799C158.236 214.027 160.514 212.286 162.768 210.583L166.139 208.073L169.463 205.658C171.574 204.142 173.698 202.644 175.834 201.163C177.875 199.749 179.818 198.427 181.617 197.211L186.556 193.922L188.617 192.552C189.264 192.14 189.8 191.702 190.443 191.465C191.721 190.985 193.191 191.073 194.399 191.339C194.982 191.451 195.506 191.614 195.87 191.734V191.734Z" fill="#666DFC"/>
<path d="M216.449 149.078C216.449 154.977 218.792 160.634 222.963 164.805C227.134 168.976 232.791 171.319 238.69 171.319C244.588 171.319 250.245 168.976 254.416 164.805C258.587 160.634 260.93 154.977 260.93 149.078C260.93 143.18 258.587 137.522 254.416 133.352C250.245 129.181 244.588 126.837 238.69 126.837C232.791 126.837 227.134 129.181 222.963 133.352C218.792 137.522 216.449 143.18 216.449 149.078Z" fill="#D8D9FA"/>
<path d="M223.417 148.957C223.417 150.978 223.815 152.98 224.588 154.848C225.362 156.716 226.496 158.413 227.925 159.842C229.355 161.272 231.052 162.406 232.92 163.179C234.787 163.953 236.789 164.351 238.811 164.351C240.832 164.351 242.834 163.953 244.702 163.179C246.57 162.406 248.267 161.272 249.696 159.842C251.126 158.413 252.26 156.716 253.033 154.848C253.807 152.98 254.205 150.978 254.205 148.957C254.205 146.935 253.807 144.933 253.033 143.066C252.26 141.198 251.126 139.501 249.696 138.071C248.267 136.642 246.57 135.508 244.702 134.734C242.834 133.961 240.832 133.562 238.811 133.562C236.789 133.562 234.787 133.961 232.92 134.734C231.052 135.508 229.355 136.642 227.925 138.071C226.496 139.501 225.362 141.198 224.588 143.066C223.815 144.933 223.417 146.935 223.417 148.957Z" fill="#666DFC"/>
<path d="M232.872 33.9874C232.814 34.435 232.48 34.8016 232.037 34.8914C226.934 35.9272 222.169 38.0794 218.723 41.2589C217.956 41.9664 216.485 41.3258 216.676 40.3001C218.645 29.7073 223.016 23.2235 228.116 19.4602C228.69 19.0372 229.499 19.3836 229.743 20.0528C229.879 20.4253 230.03 20.7686 230.177 21.0772C230.85 22.4773 231.93 24.0784 233.027 25.7057L233.817 26.8762L233.951 27.0773C234.099 27.2983 234.153 27.569 234.096 27.8284C234.077 27.9137 234.057 28.0054 234.034 28.1047L233.731 29.5003C233.385 31.081 233.049 32.6299 232.872 33.9874Z" fill="#D8D9FA"/>
<path d="M256.893 11.453L256.453 10.3938C254.751 6.29793 253.901 4.24898 252.29 4.0586C250.679 3.87104 249.374 5.66428 246.765 9.25439L246.093 10.1821C245.349 11.2025 244.979 11.7117 244.462 12.0173C243.939 12.3214 243.331 12.3846 242.11 12.5122L240.999 12.6283L240.217 12.7125C236.439 13.109 234.513 13.3974 233.87 14.8346C233.186 16.3668 234.416 18.1936 236.877 21.8444L237.514 22.7884C238.213 23.8264 238.563 24.3472 238.674 24.9497C238.79 25.5538 238.654 26.1751 238.384 27.4184L238.137 28.549C237.183 32.9221 236.707 35.109 237.895 36.2456C239.082 37.3821 241.146 36.7171 245.274 35.3843L246.344 35.0394C247.52 34.6607 248.106 34.4692 248.693 34.5409C249.285 34.6105 249.811 34.9307 250.864 35.5709L251.823 36.1541C255.529 38.407 257.382 39.5335 258.799 38.7037C260.219 37.8747 260.266 35.6367 260.354 31.1619L260.379 30.0052C260.404 28.7321 260.418 28.0978 260.669 27.5364C260.919 26.9751 261.382 26.5501 262.303 25.7021L263.142 24.9314C266.386 21.9522 268.009 20.4626 267.697 18.8105C267.387 17.1648 265.352 16.4449 261.276 15.0128L260.224 14.6415C259.065 14.234 258.487 14.0307 258.052 13.6142C257.62 13.1986 257.376 12.6162 256.893 11.453Z" fill="#666DFC"/>
<path d="M98.161 69.0557L97.756 68.8117C96.1888 67.8692 95.4055 67.3972 94.8244 67.7282C94.2436 68.0604 94.2494 68.9748 94.2625 70.8043L94.2665 71.2766C94.2693 71.7973 94.2711 72.0569 94.1742 72.2848C94.0751 72.5137 93.889 72.6833 93.5149 73.0246L93.1746 73.335L92.9359 73.5542C91.7793 74.6103 91.2105 75.1774 91.3491 75.8115C91.497 76.4874 92.3522 76.7925 94.0621 77.4018L94.5045 77.5592C94.9904 77.7326 95.2341 77.8196 95.4182 77.9925C95.6046 78.1646 95.7114 78.4041 95.9262 78.8826L96.121 79.3182C96.8745 81.0028 97.2518 81.8449 97.9239 81.9315C98.596 82.0181 99.1181 81.2924 100.162 79.8398L100.432 79.4637C100.73 79.0502 100.877 78.8433 101.09 78.7233C101.303 78.6017 101.556 78.5791 102.062 78.534L102.523 78.4928C104.304 78.3335 105.195 78.2538 105.462 77.6317C105.73 77.0091 105.198 76.255 104.133 74.7486L103.858 74.3586C103.554 73.9302 103.404 73.7161 103.35 73.4685C103.296 73.2209 103.345 72.9667 103.443 72.4599L103.533 71.999C103.88 70.2164 104.054 69.3252 103.547 68.8531C103.041 68.3828 102.19 68.642 100.487 69.1642L100.047 69.2985C99.5625 69.4468 99.321 69.5208 99.0747 69.489C98.8296 69.4569 98.606 69.3234 98.161 69.0557Z" fill="#666DFC"/>
<path d="M393.704 180.939L393.434 180.23C392.386 177.487 391.863 176.115 390.801 175.959C389.738 175.804 388.841 176.965 387.046 179.29L386.584 179.891C386.072 180.552 385.817 180.881 385.469 181.074C385.117 181.265 384.714 181.295 383.904 181.356L383.166 181.411L382.648 181.452C380.141 181.642 378.86 181.796 378.408 182.734C377.926 183.735 378.704 184.967 380.262 187.429L380.666 188.066C381.108 188.766 381.33 189.118 381.391 189.518C381.457 189.92 381.355 190.329 381.152 191.146L380.967 191.889C380.252 194.764 379.895 196.202 380.659 196.977C381.423 197.751 382.801 197.351 385.558 196.548L386.272 196.341C387.058 196.113 387.449 195.997 387.836 196.056C388.226 196.114 388.568 196.335 389.252 196.779L389.876 197.183C392.284 198.745 393.488 199.526 394.442 199.004C395.397 198.483 395.471 197.003 395.616 194.045L395.654 193.28C395.695 192.438 395.717 192.019 395.893 191.652C396.07 191.285 396.384 191.013 397.01 190.47L397.579 189.976C399.783 188.067 400.885 187.113 400.711 186.014C400.537 184.919 399.205 184.404 396.536 183.378L395.846 183.112C395.088 182.821 394.709 182.675 394.43 182.391C394.152 182.108 394.001 181.718 393.704 180.939Z" fill="#666DFC"/>
<path d="M11.6143 201.416L11.4713 200.993C10.9166 199.359 10.6399 198.542 10.0195 198.426C9.3986 198.311 8.8454 198.974 7.7397 200.3L7.45472 200.642C7.13936 201.019 6.98241 201.207 6.77366 201.313C6.56276 201.417 6.32528 201.426 5.84778 201.444L5.41336 201.46L5.1078 201.472C3.63077 201.528 2.87527 201.59 2.58866 202.131C2.28323 202.709 2.71337 203.45 3.57404 204.931L3.79681 205.314C4.04121 205.735 4.16375 205.946 4.19099 206.183C4.22039 206.421 4.15139 206.658 4.01447 207.134L3.8893 207.567C3.40538 209.24 3.16396 210.076 3.5954 210.548C4.02683 211.02 4.84537 210.816 6.48283 210.405L6.90683 210.299C7.37336 210.183 7.60575 210.124 7.83201 210.167C8.05974 210.209 8.2558 210.347 8.64794 210.623L9.00513 210.874C10.3854 211.845 11.0756 212.33 11.6473 212.045C12.2201 211.76 12.2965 210.892 12.4467 209.157L12.4865 208.709C12.529 208.215 12.5512 207.97 12.663 207.758C12.7749 207.547 12.9655 207.394 13.3452 207.088L13.6906 206.811C15.0276 205.739 15.6961 205.202 15.6182 204.553C15.5406 203.906 14.7691 203.574 13.2239 202.912L12.8248 202.74C12.3857 202.552 12.1666 202.458 12.0085 202.285C11.8515 202.113 11.7718 201.88 11.6143 201.416Z" fill="#666DFC"/>
<path d="M124.62 353.242C124.62 354.553 124.168 355.645 123.264 356.519C122.376 357.378 121.012 357.808 119.174 357.808H116.146V364.384H114.089V348.632H119.174C120.952 348.632 122.3 349.061 123.219 349.92C124.153 350.779 124.62 351.886 124.62 353.242ZM119.174 356.113C120.319 356.113 121.163 355.864 121.705 355.367C122.247 354.87 122.519 354.161 122.519 353.242C122.519 351.299 121.404 350.327 119.174 350.327H116.146V356.113H119.174ZM126.408 358.147C126.408 356.881 126.664 355.774 127.176 354.824C127.689 353.86 128.389 353.114 129.278 352.587C130.182 352.06 131.184 351.796 132.284 351.796C133.369 351.796 134.31 352.03 135.109 352.497C135.907 352.964 136.503 353.551 136.894 354.259V351.999H138.973V364.384H136.894V362.079C136.487 362.802 135.877 363.405 135.064 363.887C134.265 364.354 133.331 364.587 132.261 364.587C131.162 364.587 130.167 364.316 129.278 363.774C128.389 363.231 127.689 362.471 127.176 361.491C126.664 360.512 126.408 359.397 126.408 358.147ZM136.894 358.169C136.894 357.235 136.706 356.421 136.329 355.728C135.953 355.035 135.44 354.508 134.792 354.146C134.16 353.77 133.459 353.581 132.691 353.581C131.922 353.581 131.222 353.762 130.589 354.124C129.956 354.485 129.451 355.013 129.075 355.706C128.698 356.399 128.51 357.212 128.51 358.147C128.51 359.096 128.698 359.924 129.075 360.632C129.451 361.326 129.956 361.86 130.589 362.237C131.222 362.599 131.922 362.779 132.691 362.779C133.459 362.779 134.16 362.599 134.792 362.237C135.44 361.86 135.953 361.326 136.329 360.632C136.706 359.924 136.894 359.103 136.894 358.169ZM147.556 351.796C148.626 351.796 149.56 352.03 150.359 352.497C151.172 352.964 151.775 353.551 152.167 354.259V351.999H154.246V364.655C154.246 365.785 154.005 366.787 153.523 367.661C153.04 368.55 152.347 369.243 151.443 369.74C150.554 370.237 149.515 370.486 148.325 370.486C146.697 370.486 145.342 370.102 144.257 369.333C143.172 368.565 142.532 367.518 142.336 366.192H144.37C144.596 366.945 145.063 367.548 145.771 368C146.479 368.467 147.33 368.7 148.325 368.7C149.455 368.7 150.374 368.346 151.082 367.638C151.805 366.93 152.167 365.936 152.167 364.655V362.056C151.76 362.779 151.157 363.382 150.359 363.864C149.56 364.346 148.626 364.587 147.556 364.587C146.456 364.587 145.455 364.316 144.551 363.774C143.662 363.231 142.961 362.471 142.449 361.491C141.937 360.512 141.68 359.397 141.68 358.147C141.68 356.881 141.937 355.774 142.449 354.824C142.961 353.86 143.662 353.114 144.551 352.587C145.455 352.06 146.456 351.796 147.556 351.796ZM152.167 358.169C152.167 357.235 151.978 356.421 151.602 355.728C151.225 355.035 150.713 354.508 150.065 354.146C149.432 353.77 148.731 353.581 147.963 353.581C147.195 353.581 146.494 353.762 145.861 354.124C145.229 354.485 144.724 355.013 144.347 355.706C143.97 356.399 143.782 357.212 143.782 358.147C143.782 359.096 143.97 359.924 144.347 360.632C144.724 361.326 145.229 361.86 145.861 362.237C146.494 362.599 147.195 362.779 147.963 362.779C148.731 362.779 149.432 362.599 150.065 362.237C150.713 361.86 151.225 361.326 151.602 360.632C151.978 359.924 152.167 359.103 152.167 358.169ZM169.021 357.717C169.021 358.109 168.998 358.523 168.953 358.96H159.054C159.13 360.18 159.544 361.137 160.297 361.83C161.066 362.508 161.992 362.847 163.077 362.847C163.966 362.847 164.704 362.644 165.292 362.237C165.895 361.815 166.316 361.258 166.558 360.565H168.772C168.441 361.755 167.778 362.727 166.784 363.48C165.789 364.218 164.554 364.587 163.077 364.587C161.902 364.587 160.847 364.324 159.913 363.796C158.994 363.269 158.271 362.523 157.744 361.559C157.216 360.58 156.953 359.45 156.953 358.169C156.953 356.888 157.209 355.766 157.721 354.802C158.233 353.838 158.949 353.099 159.868 352.587C160.802 352.06 161.872 351.796 163.077 351.796C164.252 351.796 165.292 352.052 166.196 352.564C167.1 353.077 167.793 353.785 168.275 354.689C168.772 355.578 169.021 356.587 169.021 357.717ZM166.897 357.288C166.897 356.504 166.723 355.834 166.377 355.276C166.03 354.704 165.556 354.274 164.953 353.988C164.365 353.687 163.71 353.536 162.987 353.536C161.947 353.536 161.058 353.868 160.32 354.531C159.597 355.194 159.183 356.113 159.077 357.288H166.897ZM190.145 364.384H188.089L179.817 351.841V364.384H177.761V348.61H179.817L188.089 361.13V348.61H190.145V364.384ZM199.052 364.587C197.892 364.587 196.837 364.324 195.888 363.796C194.954 363.269 194.216 362.523 193.673 361.559C193.146 360.58 192.882 359.45 192.882 358.169C192.882 356.904 193.154 355.789 193.696 354.824C194.253 353.845 195.007 353.099 195.956 352.587C196.905 352.06 197.967 351.796 199.142 351.796C200.318 351.796 201.38 352.06 202.329 352.587C203.278 353.099 204.024 353.838 204.566 354.802C205.124 355.766 205.403 356.888 205.403 358.169C205.403 359.45 205.116 360.58 204.544 361.559C203.986 362.523 203.225 363.269 202.261 363.796C201.297 364.324 200.227 364.587 199.052 364.587ZM199.052 362.779C199.79 362.779 200.483 362.606 201.131 362.26C201.779 361.913 202.299 361.393 202.691 360.7C203.097 360.007 203.301 359.163 203.301 358.169C203.301 357.175 203.105 356.331 202.713 355.638C202.321 354.945 201.809 354.433 201.176 354.101C200.544 353.755 199.858 353.581 199.12 353.581C198.367 353.581 197.674 353.755 197.041 354.101C196.423 354.433 195.926 354.945 195.549 355.638C195.173 356.331 194.984 357.175 194.984 358.169C194.984 359.179 195.165 360.03 195.527 360.723C195.903 361.416 196.4 361.936 197.018 362.282C197.636 362.614 198.314 362.779 199.052 362.779ZM210.615 353.694V360.994C210.615 361.597 210.743 362.026 210.999 362.282C211.255 362.523 211.7 362.644 212.333 362.644H213.847V364.384H211.994C210.849 364.384 209.99 364.12 209.417 363.593C208.845 363.066 208.559 362.199 208.559 360.994V353.694H206.954V351.999H208.559V348.881H210.615V351.999H213.847V353.694H210.615ZM231.268 348.632V350.304H224.42V355.615H229.98V357.288H224.42V364.384H222.364V348.632H231.268ZM239.153 364.587C237.993 364.587 236.938 364.324 235.989 363.796C235.055 363.269 234.317 362.523 233.774 361.559C233.247 360.58 232.983 359.45 232.983 358.169C232.983 356.904 233.255 355.789 233.797 354.824C234.354 353.845 235.108 353.099 236.057 352.587C237.006 352.06 238.068 351.796 239.243 351.796C240.419 351.796 241.481 352.06 242.43 352.587C243.379 353.099 244.125 353.838 244.667 354.802C245.225 355.766 245.503 356.888 245.503 358.169C245.503 359.45 245.217 360.58 244.645 361.559C244.087 362.523 243.326 363.269 242.362 363.796C241.398 364.324 240.328 364.587 239.153 364.587ZM239.153 362.779C239.891 362.779 240.584 362.606 241.232 362.26C241.88 361.913 242.4 361.393 242.792 360.7C243.198 360.007 243.402 359.163 243.402 358.169C243.402 357.175 243.206 356.331 242.814 355.638C242.422 354.945 241.91 354.433 241.277 354.101C240.645 353.755 239.959 353.581 239.221 353.581C238.467 353.581 237.774 353.755 237.142 354.101C236.524 354.433 236.027 354.945 235.65 355.638C235.273 356.331 235.085 357.175 235.085 358.169C235.085 359.179 235.266 360.03 235.627 360.723C236.004 361.416 236.501 361.936 237.119 362.282C237.737 362.614 238.415 362.779 239.153 362.779ZM259.191 351.999V364.384H257.134V362.553C256.743 363.186 256.193 363.683 255.485 364.045C254.791 364.392 254.023 364.565 253.179 364.565C252.215 364.565 251.349 364.369 250.58 363.977C249.812 363.57 249.202 362.968 248.75 362.169C248.313 361.371 248.094 360.399 248.094 359.254V351.999H250.128V358.983C250.128 360.203 250.437 361.145 251.055 361.808C251.673 362.455 252.516 362.779 253.586 362.779C254.686 362.779 255.552 362.44 256.185 361.762C256.818 361.084 257.134 360.098 257.134 358.802V351.999H259.191ZM268.697 351.773C270.204 351.773 271.424 352.233 272.358 353.152C273.293 354.056 273.76 355.367 273.76 357.084V364.384H271.726V357.378C271.726 356.143 271.417 355.201 270.799 354.553C270.181 353.89 269.338 353.559 268.268 353.559C267.183 353.559 266.317 353.898 265.669 354.576C265.036 355.254 264.72 356.241 264.72 357.536V364.384H262.663V351.999H264.72V353.762C265.127 353.129 265.676 352.64 266.37 352.293C267.078 351.947 267.854 351.773 268.697 351.773ZM276.351 358.147C276.351 356.881 276.607 355.774 277.119 354.824C277.631 353.86 278.332 353.114 279.221 352.587C280.125 352.06 281.134 351.796 282.249 351.796C283.213 351.796 284.11 352.022 284.938 352.474C285.767 352.911 286.4 353.491 286.837 354.214V347.66H288.916V364.384H286.837V362.056C286.43 362.794 285.827 363.405 285.029 363.887C284.23 364.354 283.296 364.587 282.226 364.587C281.127 364.587 280.125 364.316 279.221 363.774C278.332 363.231 277.631 362.471 277.119 361.491C276.607 360.512 276.351 359.397 276.351 358.147ZM286.837 358.169C286.837 357.235 286.648 356.421 286.272 355.728C285.895 355.035 285.383 354.508 284.735 354.146C284.102 353.77 283.402 353.581 282.633 353.581C281.865 353.581 281.164 353.762 280.531 354.124C279.899 354.485 279.394 355.013 279.017 355.706C278.641 356.399 278.452 357.212 278.452 358.147C278.452 359.096 278.641 359.924 279.017 360.632C279.394 361.326 279.899 361.86 280.531 362.237C281.164 362.599 281.865 362.779 282.633 362.779C283.402 362.779 284.102 362.599 284.735 362.237C285.383 361.86 285.895 361.326 286.272 360.632C286.648 359.924 286.837 359.103 286.837 358.169Z" fill="#666DFC"/>
</svg>
