<svg width="31" height="33" viewBox="0 0 31 33" fill="none" xmlns="http://www.w3.org/2000/svg">
<path d="M30.1434 9.05631C30.1434 8.67331 29.9357 8.32041 29.6009 8.13441L16.0227 0.590935C15.7042 0.413979 15.3169 0.41398 14.9983 0.590935L1.42008 8.13441C1.08527 8.32041 0.877625 8.67331 0.877625 9.05632L0.877625 24.074C0.877625 24.457 1.08527 24.8099 1.42008 24.9959L14.9983 32.5394C15.3169 32.7163 15.7042 32.7163 16.0227 32.5394L29.6009 24.9959C29.9357 24.8099 30.1434 24.457 30.1434 24.074V9.05631ZM14.9987 4.31368C15.317 4.13702 15.704 4.13702 16.0223 4.31368L23.4577 8.44025C24.1815 8.84198 24.1814 9.88293 23.4575 10.2846L20.9354 11.6839C20.517 11.916 19.9999 11.8301 19.6287 11.5282C18.5059 10.6153 17.0716 10.0616 15.5105 10.0616C13.9494 10.0616 12.5152 10.6153 11.3924 11.5282C11.0211 11.8301 10.504 11.916 10.0856 11.6839L7.56348 10.2846C6.83957 9.88293 6.8395 8.84198 7.56335 8.44025L14.9987 4.31368ZM13.8846 26.4149C13.8846 27.2189 13.0212 27.7272 12.3182 27.3371L4.67222 23.0935C4.33719 22.9076 4.12938 22.5546 4.12938 22.1714V13.9032C4.12938 13.0989 4.99347 12.5906 5.69642 12.9814L8.48359 14.5308C8.9135 14.7698 9.11251 15.2744 9.05349 15.7627C9.0219 16.0241 9.007 16.2927 9.007 16.5651C9.007 19.3022 10.6984 21.653 13.1049 22.605C13.5534 22.7825 13.8846 23.1949 13.8846 23.6773V26.4149ZM12.2588 16.5651C12.2588 14.7767 13.722 13.3134 15.5105 13.3134C17.299 13.3134 18.7623 14.7767 18.7623 16.5651C18.7623 18.3536 17.299 19.8169 15.5105 19.8169C13.722 19.8169 12.2588 18.3536 12.2588 16.5651ZM18.7028 27.3371C17.9998 27.7272 17.1364 27.2189 17.1364 26.4149V23.6935C17.1364 23.2112 17.4676 22.7987 17.9161 22.6213C20.3226 21.6693 22.014 19.3185 22.014 16.5814C22.014 16.3017 21.9983 16.0259 21.9649 15.756C21.905 15.2711 22.1041 14.7717 22.5311 14.5343L25.3246 12.9814C26.0275 12.5906 26.8916 13.0989 26.8916 13.9032V22.1714C26.8916 22.5546 26.6838 22.9076 26.3488 23.0935L18.7028 27.3371Z" fill="white"/>
</svg>
