<svg width="14" height="13" viewBox="0 0 14 13" fill="none" xmlns="http://www.w3.org/2000/svg">
<path fill-rule="evenodd" clip-rule="evenodd" d="M1.86668 0.866699C1.61915 0.866699 1.38175 0.958008 1.20672 1.12054C1.03168 1.28307 0.93335 1.50351 0.93335 1.73337V11.2667C0.93335 11.4966 1.03168 11.717 1.20672 11.8795C1.38175 12.0421 1.61915 12.1334 1.86668 12.1334H12.1333C12.3809 12.1334 12.6183 12.0421 12.7933 11.8795C12.9683 11.717 13.0667 11.4966 13.0667 11.2667V1.73337C13.0667 1.50351 12.9683 1.28307 12.7933 1.12054C12.6183 0.958008 12.3809 0.866699 12.1333 0.866699H1.86668ZM2.84668 5.20003H4.62002V10.4H2.84668V5.20003ZM4.73668 3.47103C4.73668 3.71813 4.63098 3.9551 4.44281 4.12982C4.25465 4.30454 3.99945 4.4027 3.73335 4.4027C3.46725 4.4027 3.21205 4.30454 3.02389 4.12982C2.83572 3.9551 2.73002 3.71813 2.73002 3.47103C2.73002 3.22394 2.83572 2.98697 3.02389 2.81224C3.21205 2.63752 3.46725 2.53937 3.73335 2.53937C3.99945 2.53937 4.25465 2.63752 4.44281 2.81224C4.63098 2.98697 4.73668 3.22394 4.73668 3.47103ZM11.2 7.24277C11.2 5.67843 10.1108 5.07003 9.02908 5.07003C8.67555 5.05408 8.32355 5.12304 8.00708 5.27023C7.76722 5.3829 7.51615 5.6377 7.32202 6.08317H7.27255V5.20003H5.60002V10.4044H7.37895V7.63537C7.35375 7.35197 7.45082 6.98537 7.65055 6.76783C7.85122 6.54943 8.13588 6.49743 8.35335 6.47143H8.42148C8.98708 6.47143 9.40708 6.79643 9.40708 7.61543V10.4035H11.186L11.2 7.24277Z" fill="#696CFF"/>
</svg>
